<svg xmlns="http://www.w3.org/2000/svg" viewBox="0 0 48 48" width="48" height="48" class="ig-art doodle doodle-sparkle-ping k-ink" color="#161616" aria-hidden="true" focusable="false"><g fill="none"><g><g mask="url(#igd-sparkle-ping-m1)"><defs><mask id="igd-sparkle-ping-m1" maskUnits="userSpaceOnUse"><path class="draw" pathLength="1" d="M6 30L18 33" fill="none" stroke="#fff" style="stroke-width:16.7px" stroke-linecap="round" stroke-linejoin="round"/></mask></defs><path d="M6.6 28c.8-.4 2-.2 3-.2s2 .4 3 .8s1.8.4 2.8.6s2.4.8 3.2 1.4s1.8 2.2 1.6 3s-1.8 1.6-2.8 1.8s-2.2-.4-3.4-.6s-2-.2-3-.4s-2-.2-2.8-.6s-2-1-2.8-1.8s-1.6-1.8-1.4-2.4s1.6-1.4 2.6-1.6z" fill="currentColor"/></g></g><g><g mask="url(#igd-sparkle-ping-m2)"><defs><mask id="igd-sparkle-ping-m2" maskUnits="userSpaceOnUse"><path class="draw" pathLength="1" d="M12 12L22 23" fill="none" stroke="#fff" style="stroke-width:16.7px" stroke-linecap="round" stroke-linejoin="round"/></mask></defs><path d="M13.6 10.4c1 .4 1.8 1.2 2.6 1.8s1.4 1.4 2 2.2s1.4 1.6 2 2.4s1.2 1.6 1.8 2.2s1.6 1.4 1.8 2.2s.4 3-.2 3.6s-2.4.2-3.4-.2s-1.6-1-2.4-1.6s-1.4-1.6-2-2.4s-1.2-1.6-1.8-2.2s-1.4-1.4-2-2.2s-1.4-1.8-1.6-2.8s-.4-2.6.2-3s2.2-.2 3 0z" fill="currentColor"/></g></g><g><g mask="url(#igd-sparkle-ping-m3)"><defs><mask id="igd-sparkle-ping-m3" maskUnits="userSpaceOnUse"><path class="draw" pathLength="1" d="M30 4L30 18" fill="none" stroke="#fff" style="stroke-width:16.7px" stroke-linecap="round" stroke-linejoin="round"/></mask></defs><path d="M32.2 4c.6.8.8 2 .8 3s0 2 0 3s0 2-.2 3s0 2.2-.2 3s.4 1.2 0 2s-1.8 2.4-2.6 2.4s-2-1.6-2.6-2.4s-.2-1.2-.4-2s0-2 0-3s0-2 0-3s0-2 .2-3s.2-2.2.6-3s1.6-2.2 2.2-2.2s1.8 1.4 2.2 2.2z" fill="currentColor"/></g></g></g></svg>
